<svg width="62" height="62" viewBox="0 0 62 62" fill="none" xmlns="http://www.w3.org/2000/svg">
<path d="M41.6562 22.2812C41.6562 20.1829 43.3606 18.6527 44.9235 17.6906C45.176 17.5344 45.4657 17.4484 45.7626 17.4416C46.0595 17.4348 46.3528 17.5074 46.6123 17.6518C46.8718 17.7963 47.088 18.0074 47.2385 18.2634C47.3891 18.5194 47.4686 18.8109 47.4688 19.1079V30.0312C47.4688 30.0312 53.2812 45.5312 43.5938 50.3749V59.0937H27.125V50.3749L19.375 40.6874H41.6562V22.2812Z" fill="#F9EA67"/>
<path d="M37.7512 44.8019L35.8727 44.3276C36.2712 42.734 37.9928 39.7188 41.6562 39.7188V41.6562C38.6047 41.6562 37.7846 44.6734 37.7512 44.8019Z" fill="#BFB44F"/>
<path d="M41.6562 3.875H16.4688V40.6875H41.6562V3.875Z" fill="#7349DD"/>
<path d="M22.2812 18.4062H20.3438V28.0938H22.2812V18.4062Z" fill="#DF6D52"/>
<path d="M33.9062 18.4062H31.9688V28.0938H33.9062V18.4062Z" fill="#DF6D52"/>
<path d="M26.1562 13.5625H24.2188V28.0938H26.1562V13.5625Z" fill="#DF6D52"/>
<path d="M30.0312 21.3125H28.0938V28.0938H30.0312V21.3125Z" fill="#DF6D52"/>
<path d="M37.7812 21.3125H35.8438V28.0938H37.7812V21.3125Z" fill="#DF6D52"/>
<path d="M14.2491 29.0625H16.4688V34.1884C16.4688 34.4058 16.4259 34.621 16.3427 34.8219C16.2596 35.0227 16.1376 35.2052 15.9839 35.3589C15.8302 35.5126 15.6477 35.6346 15.4469 35.7177C15.246 35.8009 15.0308 35.8438 14.8134 35.8438H14.2491C13.8101 35.8438 13.389 35.6693 13.0786 35.3589C12.7682 35.0485 12.5938 34.6274 12.5938 34.1884V30.7179C12.5938 30.2788 12.7682 29.8578 13.0786 29.5473C13.389 29.2369 13.8101 29.0625 14.2491 29.0625Z" fill="#F9EA67"/>
<path d="M14.2491 20.3438H16.4688V25.4696C16.4688 25.687 16.4259 25.9023 16.3427 26.1031C16.2596 26.304 16.1376 26.4864 15.9839 26.6402C15.8302 26.7939 15.6477 26.9158 15.4469 26.999C15.246 27.0822 15.0308 27.125 14.8134 27.125H14.2491C13.8101 27.125 13.389 26.9506 13.0786 26.6402C12.7682 26.3297 12.5938 25.9087 12.5938 25.4696V21.9991C12.5938 21.5601 12.7682 21.139 13.0786 20.8286C13.389 20.5182 13.8101 20.3438 14.2491 20.3438Z" fill="#F9EA67"/>
<path d="M14.2491 12.5938H16.4688V17.7196C16.4688 17.937 16.4259 18.1523 16.3427 18.3531C16.2596 18.554 16.1376 18.7364 15.9839 18.8902C15.8302 19.0439 15.6477 19.1658 15.4469 19.249C15.246 19.3322 15.0308 19.375 14.8134 19.375H14.2491C13.8101 19.375 13.389 19.2006 13.0786 18.8902C12.7682 18.5797 12.5938 18.1587 12.5938 17.7196V14.2491C12.5938 13.8101 12.7682 13.389 13.0786 13.0786C13.389 12.7682 13.8101 12.5938 14.2491 12.5938Z" fill="#F9EA67"/>
<path d="M27.125 31.9688H20.3438V34.875H27.125V31.9688Z" fill="#71DFBF"/>
<path d="M37.7812 31.9688H31V34.875H37.7812V31.9688Z" fill="#71DFBF"/>
<path d="M29.0625 7.75H21.3125V9.6875H29.0625V7.75Z" fill="#71DFBF"/>
<path opacity="0.2" d="M37.7512 44.8019L30.0312 49.6925V59.0938H27.125V50.375L19.375 40.6875H41.6562V41.6562C41.6562 41.6562 38.7645 41.6562 37.7512 44.8019Z" fill="#191500"/>
<path opacity="0.2" d="M46.0071 17.4529C45.6293 17.4049 45.2464 17.4889 44.9235 17.6908C43.3605 18.6529 41.6562 20.183 41.6562 22.2814V41.6564C41.6562 41.6564 41.1206 23.2501 46.0071 17.4529Z" fill="#191500"/>
<path opacity="0.2" d="M15.1053 34.2359C15.1053 35.0967 16.4023 35.1683 16.4644 34.3095C16.4673 34.2691 16.4687 34.2288 16.4687 34.1884V29.0625H15.1053V34.2359Z" fill="#191500"/>
<path opacity="0.2" d="M15.1053 25.8255C15.1053 26.5358 16.0947 26.7352 16.3547 26.0743C16.4303 25.8817 16.469 25.6766 16.4687 25.4696V20.3438H15.1053V25.8255Z" fill="#191500"/>
<path opacity="0.2" d="M15.1053 19.3478C15.4875 19.2794 15.8334 19.0789 16.0827 18.7813C16.3319 18.4836 16.4686 18.1079 16.4687 17.7196V12.5938H15.1053V19.3478Z" fill="#191500"/>
<path opacity="0.3" d="M41.6562 3.875C41.6562 3.875 22.2812 5.30681 22.2812 20.3438V40.6875H16.4688V3.875H41.6562Z" fill="#FCFCFC"/>
</svg>
