<svg width="63" height="63" viewBox="0 0 63 63" fill="none" xmlns="http://www.w3.org/2000/svg">
<path d="M28.5469 26.5781H19.6875L5.76881 29.5025C5.24825 29.6226 4.78378 29.9156 4.45118 30.3337C4.11859 30.7517 3.93751 31.2702 3.9375 31.8044V53.1562C3.93766 54.3178 4.39916 55.4317 5.22051 56.2531C6.04186 57.0744 7.15579 57.5359 8.31735 57.5361H9.84375L40.3594 57.0938V36.4219L37.4062 28.5469L28.5469 26.5781Z" fill="#71DFBF"/>
<path d="M28.5469 26.5781V21.6562L31.5 20.6719V14.7656L33.4688 13.7812L31.5 9.84375L29.5312 5.90625H19.6875L16.7344 11.8125L19.6875 18.7031V26.5781H28.5469Z" fill="#EAE294"/>
<path d="M54.1406 55.125H9.84375V59.0625H54.1406V55.125Z" fill="#7349DD"/>
<path d="M26.4481 53.1476L11.6824 51.1789C11.446 51.1474 11.229 51.0311 11.0719 50.8516C10.9147 50.6721 10.8281 50.4417 10.8281 50.2031V35.4375H12.7969V49.3418L26.7082 51.1961L26.4481 53.1476Z" fill="#48AF8F"/>
<path d="M17.7188 3.9375L14.7656 10.8281L17.7188 18.7031H20.6719V13.7812C20.6719 13.7812 17.7188 12.7969 18.7031 10.8281C19.6875 8.85938 21.6562 10.8281 21.6562 10.8281V6.89062H30.5156V3.9375H17.7188Z" fill="#5436B2"/>
<path d="M27.5625 10.8281H25.5938V12.7969H27.5625V10.8281Z" fill="#5436B2"/>
<path d="M50.2031 9.84375H46.2656V22.6406H50.2031V9.84375Z" fill="#71DFBF"/>
<path d="M49.2188 22.6406H47.25V26.5781H49.2188V22.6406Z" fill="#5EBC9F"/>
<path d="M49.2188 5.90625H47.25V9.84375H49.2188V5.90625Z" fill="#5EBC9F"/>
<path d="M42.3281 12.7969H38.3906V19.6875H42.3281V12.7969Z" fill="#DF6D52"/>
<path d="M41.3438 19.6875H39.375V23.625H41.3438V19.6875Z" fill="#BF5843"/>
<path d="M41.3438 8.85938H39.375V12.7969H41.3438V8.85938Z" fill="#BF5843"/>
<path d="M59.0625 5.90625H55.125V18.7031H59.0625V5.90625Z" fill="#DF6D52"/>
<path d="M58.0781 18.7031H56.1094V22.6406H58.0781V18.7031Z" fill="#BF5843"/>
<path d="M58.0781 1.96875H56.1094V5.90625H58.0781V1.96875Z" fill="#BF5843"/>
<path d="M25.5938 55.125L30.5156 36.4219H59.0625L54.1406 55.125H25.5938Z" fill="#7349DD"/>
<path opacity="0.2" d="M28.5469 21.6562L23.625 20.6719L28.5469 24.6094V21.6562Z" fill="#191500"/>
<path opacity="0.3" d="M3.9375 31.8044V53.1562C3.9376 54.068 4.22217 54.9569 4.75154 55.6992C5.2809 56.4415 6.02868 57.0001 6.89062 57.2971V31.5L19.6875 28.5469V26.5781L5.76881 29.5025C5.24825 29.6226 4.78378 29.9156 4.45118 30.3337C4.11859 30.7517 3.93751 31.2702 3.9375 31.8044Z" fill="#FCFCFC"/>
<path opacity="0.3" d="M54.1406 55.125H25.5938V59.0625H54.1406V55.125Z" fill="#191500"/>
<path opacity="0.2" d="M55.7648 36.4219C52.3592 41.2774 42.9144 53.5507 33.4688 55.125H54.1406L59.0625 36.4219H55.7648Z" fill="#191500"/>
</svg>
