<svg width="65" height="65" viewBox="0 0 65 65" fill="none" xmlns="http://www.w3.org/2000/svg">
<path d="M38.5938 58.9062C50.9339 58.9062 60.9375 48.9026 60.9375 36.5625C60.9375 24.2224 50.9339 14.2188 38.5938 14.2188C26.2536 14.2188 16.25 24.2224 16.25 36.5625C16.25 48.9026 26.2536 58.9062 38.5938 58.9062Z" fill="#F9EA67"/>
<path d="M50.7812 35.5469C53.0249 35.5469 54.8438 33.728 54.8438 31.4844C54.8438 29.2407 53.0249 27.4219 50.7812 27.4219C48.5376 27.4219 46.7188 29.2407 46.7188 31.4844C46.7188 33.728 48.5376 35.5469 50.7812 35.5469Z" fill="#D3C039"/>
<path d="M40.625 54.8438C42.8687 54.8438 44.6875 53.0249 44.6875 50.7812C44.6875 48.5376 42.8687 46.7188 40.625 46.7188C38.3813 46.7188 36.5625 48.5376 36.5625 50.7812C36.5625 53.0249 38.3813 54.8438 40.625 54.8438Z" fill="#D3C039"/>
<path d="M39.1016 40.625C40.5038 40.625 41.6406 39.4882 41.6406 38.0859C41.6406 36.6837 40.5038 35.5469 39.1016 35.5469C37.6993 35.5469 36.5625 36.6837 36.5625 38.0859C36.5625 39.4882 37.6993 40.625 39.1016 40.625Z" fill="#D3C039"/>
<path d="M29.9609 27.4219C31.3632 27.4219 32.5 26.2851 32.5 24.8828C32.5 23.4805 31.3632 22.3438 29.9609 22.3438C28.5587 22.3438 27.4219 23.4805 27.4219 24.8828C27.4219 26.2851 28.5587 27.4219 29.9609 27.4219Z" fill="#D3C039"/>
<path d="M49.7657 47.5578C49.0988 47.5589 48.4383 47.4283 47.8221 47.1734C47.2059 46.9185 46.6461 46.5443 46.1749 46.0724L47.6111 44.6367C48.1831 45.2056 48.9572 45.5244 49.7639 45.5233C50.5705 45.5222 51.3438 45.2013 51.9142 44.6309C52.4846 44.0605 52.8055 43.2872 52.8066 42.4806C52.8077 41.6739 52.4889 40.8998 51.9201 40.3278L53.3563 38.8916C54.0667 39.6015 54.5506 40.5061 54.7467 41.4911C54.9427 42.4761 54.8422 43.4971 54.4578 44.4249C54.0734 45.3527 53.4224 46.1457 52.5871 46.7033C51.7519 47.261 50.77 47.5584 49.7657 47.5578Z" fill="#D3C039"/>
<path d="M30.618 40.5317L23.4365 33.3501L9.07336 47.7132L16.2549 54.8948L30.618 40.5317Z" fill="#7349DD"/>
<path d="M23.4366 33.3502L32.7726 31.1958L30.6181 40.5318L23.4366 33.3502Z" fill="#5436B2"/>
<path d="M20.5639 36.2227L15.5368 36.9408L10.5097 41.9679H14.8186" fill="#5436B2"/>
<path d="M27.7455 43.4043L27.0273 48.4314L22.0002 53.4585V49.1496" fill="#443099"/>
<path d="M20.6099 39.9068L17.563 42.9536L18.9994 44.3899L22.0462 41.3431L20.6099 39.9068Z" fill="#B49FF4"/>
<path d="M10.9155 57.1265C8.81206 59.2298 4.95243 58.7806 4.95243 58.7806C4.95243 58.7806 4.50314 54.9212 6.6065 52.8174C8.70986 50.7137 11.3799 49.9737 12.5696 51.1634C13.7593 52.353 13.0189 55.023 10.9155 57.1265Z" fill="#DF6D52"/>
<path d="M25.1917 54.4417C29.024 57.311 33.6764 58.8739 38.4638 58.9004C43.2512 58.9268 47.9205 57.4154 51.7843 54.5886C55.6481 51.7618 58.5021 47.7691 59.9261 43.1983C61.3501 38.6275 61.2689 33.7203 59.6943 29.1992C59.1689 33.6656 57.7095 38.9619 53.8281 40.625C53.8281 40.625 54.8438 47.7344 47.7344 46.7188C47.7344 46.7188 47.7344 52.8125 40.625 51.7969C33.8398 50.8276 37.23 58.1839 25.1917 54.4417Z" fill="#D3C039"/>
<path opacity="0.5" d="M48.0629 16.3204C44.9058 14.8453 41.4476 14.1286 37.9643 14.2278C34.481 14.327 31.0691 15.2391 28.0011 16.8915C24.9331 18.5438 22.2938 20.8906 20.2941 23.7445C18.2944 26.5983 16.9896 29.8801 16.4839 33.3279C20.8838 30.441 25.3906 23.3593 25.3906 23.3593C31.3521 16.0731 41.6321 15.6992 48.0629 16.3204Z" fill="#FCF8DE"/>
<path d="M38.5938 4.0625L30.4688 9.14062H38.5938V4.0625Z" fill="#71DFBF"/>
<path d="M39.6094 4.0625H37.5781V20.3125H39.6094V4.0625Z" fill="#3FA585"/>
<path opacity="0.5" d="M32.7726 31.1958L24.8728 34.7865L10.5097 49.1496L9.07336 47.7133L23.4366 33.3502L32.7726 31.1958Z" fill="#FCF8DE"/>
<path d="M8.42421 55.504C7.64726 55.7111 6.71491 55.2968 6.71491 55.2968C8.26641 54.9842 8.26882 53.1731 8.26882 53.1731C8.54278 51.5902 9.70136 50.9118 10.6106 50.6213C9.37293 50.7652 7.88542 51.539 6.60662 52.8176C4.50314 54.921 4.95242 58.7806 4.95242 58.7806C8.6804 57.4472 8.42421 55.504 8.42421 55.504Z" fill="#F9917D"/>
<path d="M8.70898 58.4074C9.53632 58.1628 10.293 57.7235 10.9158 57.1265C12.8949 55.1474 13.667 52.6674 12.7603 51.39C12.5808 51.2057 12.3895 51.0334 12.1875 50.874C12.1875 50.874 13.1841 54.1805 10.8195 54.701L11.6077 54.8438C11.6077 54.8438 9.45801 56.4201 8.70898 58.4074Z" fill="#913D31"/>
<path opacity="0.5" d="M32.7726 31.1958L29.1817 39.0955L14.8186 53.4586L16.255 54.8949L30.618 40.5318L32.7726 31.1958Z" fill="#382682"/>
</svg>
