<svg width="56" height="56" viewBox="0 0 56 56" fill="none" xmlns="http://www.w3.org/2000/svg">
<path d="M27.125 36.75C24.5 36.75 23.625 32.375 23.625 32.375H39.1175C40.7353 32.375 42.3145 32.8687 43.6442 33.7902C44.9739 34.7117 45.9907 36.017 46.5588 37.5318L47.25 39.375L52.5 45.5L45.5 52.5L39.375 45.5L18.375 42L7.875 35L8.25617 34.6188C9.5223 33.3527 10.5 32.375 14 34.125L20.125 36.75H27.125Z" fill="#F9EA67"/>
<path d="M28 25.375C33.799 25.375 38.5 20.674 38.5 14.875C38.5 9.07601 33.799 4.375 28 4.375C22.201 4.375 17.5 9.07601 17.5 14.875C17.5 20.674 22.201 25.375 28 25.375Z" fill="#7349DD"/>
<path d="M17.5 14.8749C17.4995 13.9382 17.6241 13.0056 17.8708 12.102C16.2936 11.0245 14.4199 10.4653 12.5102 10.5022C10.6005 10.5391 8.74977 11.1703 7.21549 12.308C5.68121 13.4457 4.53965 15.0333 3.94963 16.85C3.35961 18.6666 3.35045 20.622 3.92344 22.4441C4.49643 24.2662 5.62306 25.8644 7.14663 27.0164C8.67019 28.1684 10.5149 28.8169 12.4242 28.8717C14.3335 28.9265 16.2124 28.3849 17.7995 27.3222C19.3866 26.2595 20.6031 24.7285 21.2796 22.9423C20.0956 21.9579 19.143 20.7247 18.4897 19.3303C17.8364 17.9359 17.4985 16.4147 17.5 14.8749Z" fill="#DF6D52"/>
<path d="M43.3125 10.5C41.4625 10.4974 39.6551 11.056 38.1292 12.1021C38.6597 14.0457 38.6204 16.1008 38.016 18.0226C37.4116 19.9445 36.2677 21.6522 34.7203 22.9424C35.314 24.5094 36.3248 25.8841 37.6436 26.918C38.9623 27.9518 40.5386 28.6053 42.202 28.8077C43.8653 29.0102 45.5524 28.7538 47.0806 28.0665C48.6088 27.3792 49.9199 26.287 50.872 24.9082C51.8242 23.5293 52.3811 21.9164 52.4826 20.2438C52.5841 18.5712 52.2262 16.9028 51.4477 15.419C50.6691 13.9351 49.4997 12.6925 48.0658 11.8255C46.6319 10.9585 44.9882 10.5001 43.3125 10.5Z" fill="#71DFBF"/>
<path d="M46.925 20.1875L43.4807 21.5656L43.0738 19.9381L44.9498 19.1877L44.3 17.5629L42.6453 18.2243L41.9736 15.5376L40.276 15.9621L41.0055 18.8802L39.9249 19.3125L40.5747 20.9372L41.4339 20.5936L42.026 22.9621C42.0563 23.0832 42.1122 23.1965 42.1899 23.2942C42.2676 23.392 42.3653 23.472 42.4765 23.5288C42.5877 23.5857 42.7098 23.6181 42.8345 23.6238C42.9592 23.6296 43.0838 23.6086 43.1997 23.5622L47.5747 21.8122L46.925 20.1875Z" fill="#DF6D52"/>
<path d="M8.75 24.5C8.23082 24.5 7.72331 24.346 7.29163 24.0576C6.85995 23.7692 6.5235 23.3592 6.32482 22.8795C6.12614 22.3999 6.07415 21.8721 6.17544 21.3629C6.27673 20.8537 6.52673 20.386 6.89385 20.0188C7.26096 19.6517 7.72869 19.4017 8.23789 19.3004C8.74709 19.1992 9.27489 19.2511 9.75454 19.4498C10.2342 19.6485 10.6442 19.985 10.9326 20.4166C11.221 20.8483 11.375 21.3558 11.375 21.875C11.3742 22.571 11.0974 23.2382 10.6053 23.7303C10.1132 24.2224 9.44595 24.4992 8.75 24.5ZM8.75 21C8.57694 21 8.40777 21.0513 8.26388 21.1475C8.11998 21.2436 8.00783 21.3803 7.94161 21.5402C7.87538 21.7 7.85805 21.876 7.89181 22.0457C7.92558 22.2154 8.00891 22.3713 8.13128 22.4937C8.25365 22.6161 8.40956 22.6994 8.5793 22.7332C8.74903 22.767 8.92496 22.7496 9.08485 22.6834C9.24473 22.6172 9.38139 22.505 9.47754 22.3611C9.57368 22.2172 9.625 22.0481 9.625 21.875C9.62474 21.643 9.53247 21.4206 9.36843 21.2566C9.20439 21.0925 8.98199 21.0003 8.75 21Z" fill="#7349DD"/>
<path d="M12.3898 17.5C11.8706 17.5 11.3631 17.346 10.9314 17.0576C10.4997 16.7692 10.1633 16.3592 9.96459 15.8795C9.76591 15.3999 9.71392 14.8721 9.81521 14.3629C9.9165 13.8537 10.1665 13.386 10.5336 13.0188C10.9007 12.6517 11.3685 12.4017 11.8777 12.3004C12.3869 12.1992 12.9147 12.2511 13.3943 12.4498C13.874 12.6485 14.2839 12.985 14.5724 13.4166C14.8608 13.8483 15.0148 14.3558 15.0148 14.875C15.014 15.571 14.7372 16.2382 14.2451 16.7303C13.753 17.2224 13.0857 17.4992 12.3898 17.5ZM12.3898 14C12.2167 14 12.0475 14.0513 11.9036 14.1475C11.7598 14.2436 11.6476 14.3803 11.5814 14.5402C11.5152 14.7 11.4978 14.876 11.5316 15.0457C11.5653 15.2154 11.6487 15.3713 11.7711 15.4937C11.8934 15.6161 12.0493 15.6994 12.2191 15.7332C12.3888 15.767 12.5647 15.7496 12.7246 15.6834C12.8845 15.6172 13.0212 15.505 13.1173 15.3611C13.2135 15.2172 13.2648 15.0481 13.2648 14.875C13.2645 14.643 13.1722 14.4206 13.0082 14.2566C12.8442 14.0925 12.6218 14.0003 12.3898 14Z" fill="#7349DD"/>
<path d="M15.75 24.5C15.2308 24.5 14.7233 24.346 14.2916 24.0576C13.86 23.7692 13.5235 23.3592 13.3248 22.8795C13.1261 22.3999 13.0742 21.8721 13.1754 21.3629C13.2767 20.8537 13.5267 20.386 13.8938 20.0188C14.261 19.6517 14.7287 19.4017 15.2379 19.3004C15.7471 19.1992 16.2749 19.2511 16.7545 19.4498C17.2342 19.6485 17.6442 19.985 17.9326 20.4166C18.221 20.8483 18.375 21.3558 18.375 21.875C18.3742 22.571 18.0974 23.2382 17.6053 23.7303C17.1132 24.2224 16.446 24.4992 15.75 24.5ZM15.75 21C15.5769 21 15.4078 21.0513 15.2639 21.1475C15.12 21.2436 15.0078 21.3803 14.9416 21.5402C14.8754 21.7 14.8581 21.876 14.8918 22.0457C14.9256 22.2154 15.0089 22.3713 15.1313 22.4937C15.2537 22.6161 15.4096 22.6994 15.5793 22.7332C15.749 22.767 15.925 22.7496 16.0848 22.6834C16.2447 22.6172 16.3814 22.505 16.4775 22.3611C16.5737 22.2172 16.625 22.0481 16.625 21.875C16.6247 21.643 16.5325 21.4206 16.3684 21.2566C16.2044 21.0925 15.982 21.0003 15.75 21Z" fill="#7349DD"/>
<path d="M10.6806 21.5288L9.6272 20.1315L11.375 18.8138V16.625H13.125V19.25C13.125 19.3855 13.0935 19.5191 13.0331 19.6403C12.9726 19.7616 12.8848 19.8671 12.7767 19.9487L10.6806 21.5288Z" fill="#7349DD"/>
<path d="M28 7.875L23.625 14.875H32.375L28 7.875Z" fill="#71DFBF"/>
<path d="M23.625 14.875L28 21.875L32.375 14.875H23.625Z" fill="#54B597"/>
<path d="M12.7768 18.5513L11.7232 19.9487L13.8192 21.5289L14.8727 20.1314L12.7768 18.5513Z" fill="#7349DD"/>
<path d="M35.875 36.75V35.875L25.2898 35.8892C25.7735 36.3958 26.3783 36.75 27.125 36.75H35.875Z" fill="#C1B652"/>
<path opacity="0.2" d="M17.5 14.8751C17.4995 13.9384 17.6242 13.0059 17.8708 12.1022C17.4016 11.7811 16.9036 11.5042 16.3833 11.2751C15.5484 13.5699 15.5384 16.0838 16.3551 18.3852C17.1718 20.6865 18.7642 22.6317 20.8589 23.8868C21.0168 23.5802 21.1572 23.265 21.2795 22.9425C20.0954 21.9581 19.1429 20.7249 18.4896 19.3305C17.8364 17.9361 17.4985 16.4149 17.5 14.8751Z" fill="#191500"/>
<path opacity="0.2" d="M38.5 14.8751C38.5015 16.4149 38.1635 17.9361 37.5103 19.3305C36.857 20.7249 35.9044 21.9581 34.7203 22.9425C34.8426 23.265 34.983 23.5802 35.1409 23.8868C37.2356 22.6317 38.828 20.6865 39.6447 18.3852C40.4614 16.0838 40.4514 13.5699 39.6165 11.2751C39.0961 11.5042 38.5982 11.7811 38.129 12.1022C38.3757 13.0059 38.5004 13.9384 38.5 14.8751Z" fill="#191500"/>
<path opacity="0.3" d="M35.3609 7.38828C33.5414 5.59895 31.1325 4.53351 28.5845 4.39112C26.0366 4.24873 23.524 5.03914 21.5164 6.61459C19.5089 8.19005 18.1438 10.4427 17.6763 12.9514C17.2089 15.4602 17.6711 18.0533 18.9765 20.2461C28.6727 16.8145 33.3272 10.9469 35.3609 7.38828Z" fill="#FCFCFC"/>
<path opacity="0.3" d="M16.1766 11.1879C14.7811 10.6153 13.2661 10.395 11.7653 10.5465C10.2646 10.698 8.82419 11.2166 7.57134 12.0567C6.31849 12.8967 5.29173 14.0322 4.58168 15.3631C3.87163 16.6939 3.50013 18.179 3.5 19.6874C3.50006 20.1656 3.53718 20.643 3.61102 21.1154C10.6134 18.3605 14.3288 14.1239 16.1766 11.1879Z" fill="#FCFCFC"/>
<path opacity="0.3" d="M39.8234 11.1879C41.2189 10.6153 42.7339 10.395 44.2346 10.5465C45.7354 10.698 47.1758 11.2166 48.4286 12.0567C49.6815 12.8967 50.7083 14.0322 51.4183 15.3631C52.1284 16.6939 52.4999 18.179 52.5 19.6874C52.4999 20.1656 52.4628 20.643 52.389 21.1154C45.3866 18.3605 41.6712 14.1239 39.8234 11.1879Z" fill="#FCFCFC"/>
<path opacity="0.2" d="M39.375 45.5L45.5 52.5L48.079 49.921L40.25 42.875L20.125 40.25L7.875 35L18.375 42L39.375 45.5Z" fill="#191500"/>
</svg>
