<svg width="24" height="24" viewBox="0 0 24 24" fill="none" xmlns="http://www.w3.org/2000/svg">
<path fill-rule="evenodd" clip-rule="evenodd" d="M12.5387 0.342393C11.9601 -0.114131 11.1438 -0.114131 10.5652 0.342393C10.1297 0.685989 9.54682 0.778307 9.02646 0.586104C8.33507 0.33073 7.55878 0.582964 7.14954 1.19595C6.84154 1.65731 6.31572 1.92522 5.76143 1.90323C5.02497 1.874 4.36462 2.35378 4.16483 3.06322C4.01447 3.59718 3.59718 4.01447 3.06322 4.16483C2.35378 4.36462 1.874 5.02497 1.90323 5.76143C1.92522 6.31572 1.65731 6.84154 1.19595 7.14954C0.582964 7.55878 0.33073 8.33507 0.586104 9.02646C0.778307 9.54682 0.685989 10.1297 0.342393 10.5652C-0.114131 11.1438 -0.114131 11.9601 0.342393 12.5387C0.685989 12.9742 0.778307 13.5571 0.586104 14.0774C0.33073 14.7688 0.582964 15.5451 1.19595 15.9543C1.65731 16.2623 1.92522 16.7882 1.90323 17.3424C1.874 18.0789 2.35378 18.7393 3.06323 18.939C3.59718 19.0894 4.01447 19.5067 4.16483 20.0407C4.36462 20.7501 5.02497 21.2299 5.76143 21.2007C6.31572 21.1787 6.84154 21.4466 7.14954 21.9079C7.55878 22.5209 8.33507 22.7731 9.02646 22.5178C9.54682 22.3256 10.1297 22.4179 10.5652 22.7615C11.1438 23.218 11.9601 23.218 12.5387 22.7615C12.9742 22.4179 13.5571 22.3256 14.0774 22.5178C14.7688 22.7731 15.5451 22.5209 15.9543 21.9079C16.2623 21.4466 16.7882 21.1787 17.3424 21.2007C18.0789 21.2299 18.7393 20.7501 18.939 20.0407C19.0894 19.5067 19.5067 19.0894 20.0407 18.939C20.7501 18.7393 21.2299 18.0789 21.2007 17.3424C21.1787 16.7882 21.4466 16.2623 21.9079 15.9543C22.5209 15.5451 22.7731 14.7688 22.5178 14.0774C22.3256 13.5571 22.4179 12.9742 22.7615 12.5387C23.218 11.9601 23.218 11.1438 22.7615 10.5652C22.4179 10.1297 22.3256 9.54682 22.5178 9.02646C22.7731 8.33507 22.5209 7.55878 21.9079 7.14954C21.4466 6.84154 21.1787 6.31572 21.2007 5.76143C21.2299 5.02497 20.7501 4.36462 20.0407 4.16483C19.5067 4.01447 19.0894 3.59718 18.939 3.06323C18.7393 2.35378 18.0789 1.874 17.3424 1.90323C16.7882 1.92522 16.2623 1.65731 15.9543 1.19595C15.5451 0.582964 14.7688 0.33073 14.0774 0.586104C13.5571 0.778307 12.9742 0.685989 12.5387 0.342393ZM16.9645 7.23183L17.9268 8.19185C18.1041 8.36865 18.1041 8.65567 17.9268 8.83202L10.8705 15.8721C10.6933 16.0488 10.406 16.0488 10.2288 15.8721L6.2046 11.8304C6.02738 11.6536 6.02738 11.3675 6.2046 11.1902L7.16691 10.2302C7.34458 10.0534 7.63138 10.0534 7.8086 10.2302L10.553 12.9879L16.3228 7.23183C16.5001 7.05503 16.7869 7.05503 16.9645 7.23183Z" fill="#55C1FD"/>
</svg>
